<svg width="122" height="95" viewBox="0 0 122 95" fill="none" xmlns="http://www.w3.org/2000/svg">
<path d="M23.2836 0.242729C18.2908 0.880112 13.2625 2.89849 9.50904 5.80212C0.408637 12.7779 -2.28253 25.9505 1.96668 42.8765C6.49918 60.8649 18.9636 82.6775 29.1617 90.3969C40.1388 98.6829 51.293 94.6462 56.994 80.2696C57.596 78.8178 59.3665 74.1791 60.96 70.0007C66.6964 54.9514 73.4598 40.0437 75.8676 37.2817L77.0716 35.9007L78.2401 37.2817C82.808 42.7703 87.7654 60.4046 87.8363 71.4525C87.8717 77.7555 93.0416 81.2965 98.601 78.747C106.25 75.2414 117.864 54.5973 121.157 38.6627C121.759 35.7945 121.972 33.4928 121.972 29.9872C122.007 24.357 121.405 21.3826 119.316 16.9917C115.527 9.05985 106.32 3.42964 97.0783 3.42964C79.8336 3.42964 65.2092 22.6928 48.4602 67.522C45.0254 76.6932 43.9277 79.1365 42.3697 80.8008C41.0241 82.2172 40.2096 82.3234 38.3329 81.3674C33.0214 78.6762 25.0187 67.2033 19.176 54.0307C13.7228 41.6726 11.492 30.7663 12.9084 23.6134C13.8291 19.0809 15.2101 16.8855 18.0783 15.3274C24.7 11.7156 40.0326 13.2737 58.9416 19.435L64.5364 21.2764L65.2092 20.4973C65.5633 20.037 65.7403 19.435 65.6341 19.1517C65.3508 18.3727 58.7645 13.2383 54.1612 10.1576C42.0155 2.08405 32.5965 -0.925804 23.2836 0.242729ZM102.425 17.3104C105.187 18.5498 107.276 20.639 108.48 23.1885C109.153 24.6757 109.259 25.4547 109.224 29.9872C109.224 34.4489 109.082 35.6175 108.268 38.8398C106.745 44.5762 102.638 54.4557 101.115 55.9783C100.23 56.8635 98.6364 56.6865 97.7865 55.6242C97.3616 55.093 97.0429 54.5265 97.0429 54.3494C97.0429 53.4996 93.3248 46.453 91.2356 43.3369C88.8632 39.7604 84.7556 34.7676 82.2061 32.2889C80.2231 30.4122 80.2585 29.3144 82.3123 26.5525C84.6139 23.4364 87.9425 19.9662 90.1379 18.479C94.3871 15.5399 97.8927 15.2212 102.425 17.3104Z" fill="#560BAC"/>
</svg>
