<svg width="200" height="171" viewBox="0 0 200 171" fill="none" xmlns="http://www.w3.org/2000/svg">
<path d="M2.432 167C2.016 167 1.696 166.888 1.472 166.664C1.248 166.44 1.136 166.12 1.136 165.704V157.016C1.136 156.6 1.248 156.28 1.472 156.056C1.696 155.832 2.016 155.72 2.432 155.72H5.552C7.48267 155.72 8.97067 156.211 10.016 157.192C11.072 158.163 11.6 159.549 11.6 161.352C11.6 162.259 11.4613 163.064 11.184 163.768C10.9173 164.461 10.528 165.048 10.016 165.528C9.504 166.008 8.87467 166.376 8.128 166.632C7.38133 166.877 6.52267 167 5.552 167H2.432ZM3.616 164.968H5.408C6.016 164.968 6.544 164.893 6.992 164.744C7.44 164.595 7.81333 164.371 8.112 164.072C8.41067 163.773 8.63467 163.4 8.784 162.952C8.93333 162.493 9.008 161.96 9.008 161.352C9.008 160.136 8.704 159.235 8.096 158.648C7.49867 158.051 6.60267 157.752 5.408 157.752H3.616V164.968ZM17.3986 167.176C16.4706 167.176 15.6706 167.011 14.9986 166.68C14.3373 166.339 13.8253 165.864 13.4626 165.256C13.1106 164.637 12.9346 163.912 12.9346 163.08C12.9346 162.269 13.1053 161.56 13.4466 160.952C13.788 160.333 14.2626 159.853 14.8706 159.512C15.4893 159.16 16.188 158.984 16.9666 158.984C17.532 158.984 18.044 159.08 18.5026 159.272C18.9613 159.453 19.356 159.72 19.6866 160.072C20.0173 160.413 20.268 160.835 20.4386 161.336C20.6093 161.827 20.6946 162.376 20.6946 162.984C20.6946 163.187 20.6306 163.341 20.5026 163.448C20.3746 163.544 20.188 163.592 19.9426 163.592H14.9186V162.344H18.9506L18.6946 162.568C18.6946 162.131 18.6306 161.768 18.5026 161.48C18.3746 161.181 18.188 160.957 17.9426 160.808C17.708 160.659 17.4146 160.584 17.0626 160.584C16.668 160.584 16.332 160.675 16.0546 160.856C15.7773 161.037 15.564 161.299 15.4146 161.64C15.2653 161.981 15.1906 162.392 15.1906 162.872V163C15.1906 163.811 15.3773 164.408 15.7506 164.792C16.1346 165.176 16.7 165.368 17.4466 165.368C17.7026 165.368 17.996 165.336 18.3266 165.272C18.6573 165.208 18.9666 165.107 19.2546 164.968C19.5 164.851 19.7186 164.813 19.9106 164.856C20.1026 164.888 20.252 164.973 20.3586 165.112C20.4653 165.251 20.524 165.411 20.5346 165.592C20.556 165.773 20.5186 165.955 20.4226 166.136C20.3266 166.307 20.1666 166.451 19.9426 166.568C19.58 166.771 19.1693 166.92 18.7106 167.016C18.2626 167.123 17.8253 167.176 17.3986 167.176ZM23.3159 167.144C22.9212 167.144 22.6172 167.037 22.4039 166.824C22.2012 166.611 22.0999 166.307 22.0999 165.912V160.232C22.0999 159.837 22.2012 159.539 22.4039 159.336C22.6172 159.123 22.9105 159.016 23.2839 159.016C23.6679 159.016 23.9612 159.123 24.1639 159.336C24.3665 159.539 24.4679 159.837 24.4679 160.232V161.144L24.2919 160.616C24.5372 160.093 24.8999 159.693 25.3799 159.416C25.8705 159.128 26.4252 158.984 27.0439 158.984C27.6732 158.984 28.1905 159.107 28.5959 159.352C29.0012 159.587 29.3052 159.949 29.5079 160.44C29.7105 160.92 29.8119 161.533 29.8119 162.28V165.912C29.8119 166.307 29.7052 166.611 29.4919 166.824C29.2892 167.037 28.9905 167.144 28.5959 167.144C28.2119 167.144 27.9132 167.037 27.6999 166.824C27.4972 166.611 27.3959 166.307 27.3959 165.912V162.392C27.3959 161.848 27.2945 161.459 27.0919 161.224C26.8999 160.979 26.6012 160.856 26.1959 160.856C25.6839 160.856 25.2732 161.016 24.9639 161.336C24.6652 161.656 24.5159 162.083 24.5159 162.616V165.912C24.5159 166.733 24.1159 167.144 23.3159 167.144ZM35.4715 167.176C34.7355 167.176 34.1168 167.053 33.6155 166.808C33.1248 166.563 32.7568 166.205 32.5115 165.736C32.2768 165.267 32.1595 164.675 32.1595 163.96V160.952H31.4875C31.1888 160.952 30.9542 160.872 30.7835 160.712C30.6235 160.552 30.5435 160.333 30.5435 160.056C30.5435 159.757 30.6235 159.533 30.7835 159.384C30.9542 159.224 31.1888 159.144 31.4875 159.144H32.1595V157.928C32.1595 157.523 32.2662 157.219 32.4795 157.016C32.6928 156.803 32.9915 156.696 33.3755 156.696C33.7702 156.696 34.0688 156.803 34.2715 157.016C34.4742 157.219 34.5755 157.523 34.5755 157.928V159.144H36.0955C36.3942 159.144 36.6235 159.224 36.7835 159.384C36.9435 159.533 37.0235 159.757 37.0235 160.056C37.0235 160.333 36.9435 160.552 36.7835 160.712C36.6235 160.872 36.3942 160.952 36.0955 160.952H34.5755V163.864C34.5755 164.312 34.6768 164.648 34.8795 164.872C35.0928 165.096 35.4288 165.208 35.8875 165.208C36.0475 165.208 36.1968 165.192 36.3355 165.16C36.4742 165.128 36.6022 165.107 36.7195 165.096C36.8688 165.085 36.9915 165.133 37.0875 165.24C37.1835 165.336 37.2315 165.555 37.2315 165.896C37.2315 166.152 37.1888 166.376 37.1035 166.568C37.0182 166.76 36.8688 166.899 36.6555 166.984C36.5168 167.037 36.3248 167.08 36.0795 167.112C35.8448 167.155 35.6422 167.176 35.4715 167.176ZM40.7403 167.176C40.1643 167.176 39.6469 167.064 39.1883 166.84C38.7296 166.616 38.3723 166.312 38.1163 165.928C37.8603 165.544 37.7323 165.112 37.7323 164.632C37.7323 164.056 37.8816 163.603 38.1803 163.272C38.4789 162.931 38.9643 162.691 39.6363 162.552C40.3083 162.403 41.1989 162.328 42.3083 162.328H43.1563V163.576H42.3243C41.7803 163.576 41.3376 163.608 40.9963 163.672C40.6656 163.725 40.4256 163.821 40.2763 163.96C40.1376 164.099 40.0683 164.291 40.0683 164.536C40.0683 164.835 40.1696 165.08 40.3723 165.272C40.5856 165.464 40.8896 165.56 41.2843 165.56C41.5936 165.56 41.8656 165.491 42.1003 165.352C42.3456 165.203 42.5376 165.005 42.6763 164.76C42.8149 164.504 42.8843 164.216 42.8843 163.896V162.056C42.8843 161.587 42.7776 161.256 42.5643 161.064C42.3509 160.861 41.9883 160.76 41.4763 160.76C41.1883 160.76 40.8736 160.797 40.5323 160.872C40.2016 160.936 39.8336 161.048 39.4283 161.208C39.1936 161.315 38.9856 161.341 38.8043 161.288C38.6229 161.224 38.4843 161.117 38.3883 160.968C38.2923 160.808 38.2443 160.637 38.2443 160.456C38.2443 160.264 38.2976 160.083 38.4043 159.912C38.5109 159.731 38.6869 159.597 38.9323 159.512C39.4336 159.309 39.9029 159.171 40.3403 159.096C40.7883 159.021 41.1989 158.984 41.5723 158.984C42.3936 158.984 43.0656 159.107 43.5883 159.352C44.1216 159.587 44.5216 159.955 44.7883 160.456C45.0549 160.947 45.1883 161.581 45.1883 162.36V165.912C45.1883 166.307 45.0923 166.611 44.9003 166.824C44.7083 167.037 44.4309 167.144 44.0683 167.144C43.7056 167.144 43.4229 167.037 43.2203 166.824C43.0283 166.611 42.9323 166.307 42.9323 165.912V165.32L43.0443 165.416C42.9803 165.779 42.8416 166.093 42.6283 166.36C42.4256 166.616 42.1643 166.819 41.8443 166.968C41.5243 167.107 41.1563 167.176 40.7403 167.176ZM49.8225 167.176C48.8732 167.176 48.1638 166.915 47.6945 166.392C47.2252 165.859 46.9905 165.069 46.9905 164.024V156.808C46.9905 156.403 47.0918 156.099 47.2945 155.896C47.5078 155.683 47.8118 155.576 48.2065 155.576C48.5905 155.576 48.8838 155.683 49.0865 155.896C49.2998 156.099 49.4065 156.403 49.4065 156.808V163.928C49.4065 164.365 49.4972 164.691 49.6785 164.904C49.8705 165.107 50.1212 165.208 50.4305 165.208C50.5158 165.208 50.5958 165.203 50.6705 165.192C50.7452 165.181 50.8252 165.176 50.9105 165.176C51.0812 165.155 51.1985 165.208 51.2625 165.336C51.3372 165.453 51.3745 165.693 51.3745 166.056C51.3745 166.376 51.3105 166.621 51.1825 166.792C51.0545 166.952 50.8572 167.059 50.5905 167.112C50.4838 167.123 50.3612 167.133 50.2225 167.144C50.0838 167.165 49.9505 167.176 49.8225 167.176ZM58.2434 167.144C57.838 167.144 57.5287 167.032 57.3154 166.808C57.102 166.584 56.9954 166.269 56.9954 165.864V156.856C56.9954 156.451 57.102 156.136 57.3154 155.912C57.5287 155.688 57.838 155.576 58.2434 155.576C58.638 155.576 58.942 155.688 59.1554 155.912C59.3687 156.136 59.4754 156.451 59.4754 156.856V165.864C59.4754 166.269 59.3687 166.584 59.1554 166.808C58.9527 167.032 58.6487 167.144 58.2434 167.144ZM62.7534 167.144C62.3587 167.144 62.0547 167.037 61.8414 166.824C61.6387 166.611 61.5374 166.307 61.5374 165.912V160.232C61.5374 159.837 61.6387 159.539 61.8414 159.336C62.0547 159.123 62.348 159.016 62.7214 159.016C63.1054 159.016 63.3987 159.123 63.6014 159.336C63.804 159.539 63.9054 159.837 63.9054 160.232V161.144L63.7294 160.616C63.9747 160.093 64.3374 159.693 64.8174 159.416C65.308 159.128 65.8627 158.984 66.4814 158.984C67.1107 158.984 67.628 159.107 68.0334 159.352C68.4387 159.587 68.7427 159.949 68.9454 160.44C69.148 160.92 69.2494 161.533 69.2494 162.28V165.912C69.2494 166.307 69.1427 166.611 68.9294 166.824C68.7267 167.037 68.428 167.144 68.0334 167.144C67.6494 167.144 67.3507 167.037 67.1374 166.824C66.9347 166.611 66.8334 166.307 66.8334 165.912V162.392C66.8334 161.848 66.732 161.459 66.5294 161.224C66.3374 160.979 66.0387 160.856 65.6334 160.856C65.1214 160.856 64.7107 161.016 64.4014 161.336C64.1027 161.656 63.9534 162.083 63.9534 162.616V165.912C63.9534 166.733 63.5534 167.144 62.7534 167.144ZM74.061 167.176C73.5917 167.176 73.1063 167.133 72.605 167.048C72.1143 166.963 71.6663 166.819 71.261 166.616C71.0477 166.509 70.893 166.376 70.797 166.216C70.7117 166.045 70.6743 165.875 70.685 165.704C70.6957 165.533 70.749 165.379 70.845 165.24C70.9517 165.101 71.085 165.011 71.245 164.968C71.4157 164.915 71.6023 164.931 71.805 165.016C72.2423 165.197 72.6423 165.325 73.005 165.4C73.3677 165.475 73.725 165.512 74.077 165.512C74.5357 165.512 74.8663 165.443 75.069 165.304C75.2823 165.155 75.389 164.963 75.389 164.728C75.389 164.515 75.3197 164.355 75.181 164.248C75.0423 164.141 74.8397 164.067 74.573 164.024L72.893 163.72C72.2317 163.603 71.7197 163.363 71.357 163C71.005 162.627 70.829 162.152 70.829 161.576C70.829 161.043 70.9783 160.584 71.277 160.2C71.5757 159.805 71.9863 159.507 72.509 159.304C73.0423 159.091 73.645 158.984 74.317 158.984C74.797 158.984 75.2397 159.027 75.645 159.112C76.0503 159.197 76.4397 159.336 76.813 159.528C77.005 159.624 77.1383 159.752 77.213 159.912C77.2983 160.072 77.325 160.237 77.293 160.408C77.2717 160.579 77.2077 160.733 77.101 160.872C76.9943 161.011 76.8557 161.101 76.685 161.144C76.525 161.187 76.3383 161.165 76.125 161.08C75.7837 160.92 75.469 160.808 75.181 160.744C74.893 160.669 74.6157 160.632 74.349 160.632C73.869 160.632 73.5223 160.712 73.309 160.872C73.0957 161.021 72.989 161.213 72.989 161.448C72.989 161.629 73.0477 161.784 73.165 161.912C73.293 162.029 73.485 162.109 73.741 162.152L75.421 162.456C76.1143 162.573 76.6423 162.808 77.005 163.16C77.3677 163.501 77.549 163.971 77.549 164.568C77.549 165.379 77.229 166.019 76.589 166.488C75.9597 166.947 75.117 167.176 74.061 167.176ZM82.7059 167.176C81.9699 167.176 81.3512 167.053 80.8499 166.808C80.3592 166.563 79.9912 166.205 79.7459 165.736C79.5112 165.267 79.3939 164.675 79.3939 163.96V160.952H78.7219C78.4232 160.952 78.1885 160.872 78.0179 160.712C77.8579 160.552 77.7779 160.333 77.7779 160.056C77.7779 159.757 77.8579 159.533 78.0179 159.384C78.1885 159.224 78.4232 159.144 78.7219 159.144H79.3939V157.928C79.3939 157.523 79.5005 157.219 79.7139 157.016C79.9272 156.803 80.2259 156.696 80.6099 156.696C81.0045 156.696 81.3032 156.803 81.5059 157.016C81.7085 157.219 81.8099 157.523 81.8099 157.928V159.144H83.3299C83.6285 159.144 83.8579 159.224 84.0179 159.384C84.1779 159.533 84.2579 159.757 84.2579 160.056C84.2579 160.333 84.1779 160.552 84.0179 160.712C83.8579 160.872 83.6285 160.952 83.3299 160.952H81.8099V163.864C81.8099 164.312 81.9112 164.648 82.1139 164.872C82.3272 165.096 82.6632 165.208 83.1219 165.208C83.2819 165.208 83.4312 165.192 83.5699 165.16C83.7085 165.128 83.8365 165.107 83.9539 165.096C84.1032 165.085 84.2259 165.133 84.3219 165.24C84.4179 165.336 84.4659 165.555 84.4659 165.896C84.4659 166.152 84.4232 166.376 84.3379 166.568C84.2525 166.76 84.1032 166.899 83.8899 166.984C83.7512 167.037 83.5592 167.08 83.3139 167.112C83.0792 167.155 82.8765 167.176 82.7059 167.176ZM86.5666 167.144C86.1613 167.144 85.852 167.037 85.6386 166.824C85.4253 166.611 85.3186 166.307 85.3186 165.912V160.232C85.3186 159.837 85.42 159.539 85.6226 159.336C85.836 159.123 86.1293 159.016 86.5026 159.016C86.8866 159.016 87.18 159.123 87.3826 159.336C87.5853 159.539 87.6866 159.837 87.6866 160.232V161.064H87.5266C87.6546 160.424 87.9373 159.928 88.3746 159.576C88.812 159.224 89.3773 159.027 90.0706 158.984C90.3373 158.963 90.54 159.032 90.6786 159.192C90.828 159.341 90.908 159.592 90.9186 159.944C90.94 160.275 90.8706 160.536 90.7106 160.728C90.5613 160.92 90.3053 161.037 89.9426 161.08L89.5746 161.112C88.9666 161.165 88.5133 161.341 88.2146 161.64C87.9266 161.939 87.7826 162.371 87.7826 162.936V165.912C87.7826 166.307 87.676 166.611 87.4626 166.824C87.26 167.037 86.9613 167.144 86.5666 167.144ZM94.8084 167.176C94.147 167.176 93.5977 167.053 93.1604 166.808C92.723 166.563 92.3977 166.195 92.1844 165.704C91.9817 165.203 91.8804 164.584 91.8804 163.848V160.232C91.8804 159.827 91.9817 159.523 92.1844 159.32C92.3977 159.117 92.6964 159.016 93.0804 159.016C93.4644 159.016 93.763 159.117 93.9764 159.32C94.1897 159.523 94.2964 159.827 94.2964 160.232V163.912C94.2964 164.381 94.3924 164.733 94.5844 164.968C94.7764 165.192 95.0804 165.304 95.4964 165.304C95.955 165.304 96.3284 165.144 96.6164 164.824C96.915 164.493 97.0644 164.061 97.0644 163.528V160.232C97.0644 159.827 97.1657 159.523 97.3684 159.32C97.5817 159.117 97.8804 159.016 98.2644 159.016C98.659 159.016 98.9577 159.117 99.1604 159.32C99.3737 159.523 99.4804 159.827 99.4804 160.232V165.912C99.4804 166.733 99.091 167.144 98.3124 167.144C97.9284 167.144 97.635 167.037 97.4324 166.824C97.2297 166.611 97.1284 166.307 97.1284 165.912V164.84L97.3684 165.464C97.1337 166.008 96.7977 166.429 96.3604 166.728C95.923 167.027 95.4057 167.176 94.8084 167.176ZM102.598 167.144C102.203 167.144 101.899 167.037 101.686 166.824C101.483 166.611 101.382 166.307 101.382 165.912V160.232C101.382 159.837 101.483 159.539 101.686 159.336C101.899 159.123 102.193 159.016 102.566 159.016C102.95 159.016 103.243 159.123 103.446 159.336C103.649 159.539 103.75 159.837 103.75 160.232V161.256L103.574 160.616C103.787 160.125 104.118 159.731 104.566 159.432C105.014 159.133 105.542 158.984 106.15 158.984C106.758 158.984 107.265 159.128 107.67 159.416C108.075 159.704 108.363 160.147 108.534 160.744H108.31C108.545 160.2 108.902 159.773 109.382 159.464C109.873 159.144 110.433 158.984 111.062 158.984C111.67 158.984 112.166 159.107 112.55 159.352C112.945 159.587 113.238 159.949 113.43 160.44C113.622 160.92 113.718 161.533 113.718 162.28V165.912C113.718 166.307 113.611 166.611 113.398 166.824C113.195 167.037 112.902 167.144 112.518 167.144C112.123 167.144 111.819 167.037 111.606 166.824C111.403 166.611 111.302 166.307 111.302 165.912V162.36C111.302 161.837 111.217 161.459 111.046 161.224C110.886 160.979 110.609 160.856 110.214 160.856C109.755 160.856 109.398 161.016 109.142 161.336C108.886 161.656 108.758 162.109 108.758 162.696V165.912C108.758 166.307 108.651 166.611 108.438 166.824C108.235 167.037 107.942 167.144 107.558 167.144C107.174 167.144 106.875 167.037 106.662 166.824C106.449 166.611 106.342 166.307 106.342 165.912V162.36C106.342 161.837 106.257 161.459 106.086 161.224C105.926 160.979 105.649 160.856 105.254 160.856C104.795 160.856 104.438 161.016 104.182 161.336C103.926 161.656 103.798 162.109 103.798 162.696V165.912C103.798 166.733 103.398 167.144 102.598 167.144ZM119.649 167.176C118.721 167.176 117.921 167.011 117.249 166.68C116.587 166.339 116.075 165.864 115.713 165.256C115.361 164.637 115.185 163.912 115.185 163.08C115.185 162.269 115.355 161.56 115.697 160.952C116.038 160.333 116.513 159.853 117.121 159.512C117.739 159.16 118.438 158.984 119.217 158.984C119.782 158.984 120.294 159.08 120.753 159.272C121.211 159.453 121.606 159.72 121.937 160.072C122.267 160.413 122.518 160.835 122.689 161.336C122.859 161.827 122.945 162.376 122.945 162.984C122.945 163.187 122.881 163.341 122.753 163.448C122.625 163.544 122.438 163.592 122.193 163.592H117.169V162.344H121.201L120.945 162.568C120.945 162.131 120.881 161.768 120.753 161.48C120.625 161.181 120.438 160.957 120.193 160.808C119.958 160.659 119.665 160.584 119.313 160.584C118.918 160.584 118.582 160.675 118.305 160.856C118.027 161.037 117.814 161.299 117.665 161.64C117.515 161.981 117.441 162.392 117.441 162.872V163C117.441 163.811 117.627 164.408 118.001 164.792C118.385 165.176 118.95 165.368 119.697 165.368C119.953 165.368 120.246 165.336 120.577 165.272C120.907 165.208 121.217 165.107 121.505 164.968C121.75 164.851 121.969 164.813 122.161 164.856C122.353 164.888 122.502 164.973 122.609 165.112C122.715 165.251 122.774 165.411 122.785 165.592C122.806 165.773 122.769 165.955 122.673 166.136C122.577 166.307 122.417 166.451 122.193 166.568C121.83 166.771 121.419 166.92 120.961 167.016C120.513 167.123 120.075 167.176 119.649 167.176ZM125.566 167.144C125.171 167.144 124.867 167.037 124.654 166.824C124.451 166.611 124.35 166.307 124.35 165.912V160.232C124.35 159.837 124.451 159.539 124.654 159.336C124.867 159.123 125.161 159.016 125.534 159.016C125.918 159.016 126.211 159.123 126.414 159.336C126.617 159.539 126.718 159.837 126.718 160.232V161.144L126.542 160.616C126.787 160.093 127.15 159.693 127.63 159.416C128.121 159.128 128.675 158.984 129.294 158.984C129.923 158.984 130.441 159.107 130.846 159.352C131.251 159.587 131.555 159.949 131.758 160.44C131.961 160.92 132.062 161.533 132.062 162.28V165.912C132.062 166.307 131.955 166.611 131.742 166.824C131.539 167.037 131.241 167.144 130.846 167.144C130.462 167.144 130.163 167.037 129.95 166.824C129.747 166.611 129.646 166.307 129.646 165.912V162.392C129.646 161.848 129.545 161.459 129.342 161.224C129.15 160.979 128.851 160.856 128.446 160.856C127.934 160.856 127.523 161.016 127.214 161.336C126.915 161.656 126.766 162.083 126.766 162.616V165.912C126.766 166.733 126.366 167.144 125.566 167.144ZM137.722 167.176C136.986 167.176 136.367 167.053 135.866 166.808C135.375 166.563 135.007 166.205 134.762 165.736C134.527 165.267 134.41 164.675 134.41 163.96V160.952H133.738C133.439 160.952 133.204 160.872 133.034 160.712C132.873 160.552 132.793 160.333 132.793 160.056C132.793 159.757 132.873 159.533 133.034 159.384C133.204 159.224 133.439 159.144 133.738 159.144H134.41V157.928C134.41 157.523 134.516 157.219 134.73 157.016C134.943 156.803 135.242 156.696 135.626 156.696C136.02 156.696 136.319 156.803 136.522 157.016C136.724 157.219 136.826 157.523 136.826 157.928V159.144H138.346C138.644 159.144 138.874 159.224 139.034 159.384C139.194 159.533 139.274 159.757 139.274 160.056C139.274 160.333 139.194 160.552 139.034 160.712C138.874 160.872 138.644 160.952 138.346 160.952H136.826V163.864C136.826 164.312 136.927 164.648 137.13 164.872C137.343 165.096 137.679 165.208 138.138 165.208C138.298 165.208 138.447 165.192 138.586 165.16C138.724 165.128 138.852 165.107 138.97 165.096C139.119 165.085 139.242 165.133 139.338 165.24C139.434 165.336 139.482 165.555 139.482 165.896C139.482 166.152 139.439 166.376 139.354 166.568C139.268 166.76 139.119 166.899 138.906 166.984C138.767 167.037 138.575 167.08 138.33 167.112C138.095 167.155 137.892 167.176 137.722 167.176ZM149.043 167.176C148.595 167.176 148.136 167.139 147.667 167.064C147.208 167 146.766 166.904 146.339 166.776C145.923 166.648 145.55 166.488 145.219 166.296C144.984 166.168 144.819 166.003 144.723 165.8C144.627 165.587 144.59 165.373 144.611 165.16C144.643 164.947 144.723 164.76 144.851 164.6C144.99 164.429 145.16 164.323 145.363 164.28C145.576 164.227 145.811 164.264 146.067 164.392C146.504 164.637 146.979 164.819 147.491 164.936C148.014 165.053 148.531 165.112 149.043 165.112C149.822 165.112 150.376 164.995 150.707 164.76C151.038 164.515 151.203 164.211 151.203 163.848C151.203 163.539 151.086 163.293 150.851 163.112C150.616 162.931 150.206 162.776 149.619 162.648L147.811 162.264C146.787 162.051 146.024 161.688 145.523 161.176C145.032 160.653 144.787 159.971 144.787 159.128C144.787 158.595 144.899 158.109 145.123 157.672C145.347 157.235 145.662 156.856 146.067 156.536C146.472 156.216 146.952 155.971 147.507 155.8C148.072 155.629 148.691 155.544 149.363 155.544C149.96 155.544 150.547 155.619 151.123 155.768C151.699 155.907 152.206 156.115 152.643 156.392C152.856 156.52 153 156.685 153.075 156.888C153.16 157.08 153.187 157.277 153.155 157.48C153.134 157.672 153.054 157.843 152.915 157.992C152.787 158.141 152.622 158.237 152.419 158.28C152.216 158.323 151.971 158.275 151.683 158.136C151.331 157.955 150.958 157.821 150.563 157.736C150.168 157.651 149.763 157.608 149.347 157.608C148.899 157.608 148.515 157.667 148.195 157.784C147.886 157.901 147.646 158.067 147.475 158.28C147.315 158.493 147.235 158.739 147.235 159.016C147.235 159.325 147.347 159.576 147.571 159.768C147.795 159.96 148.184 160.115 148.739 160.232L150.547 160.616C151.592 160.84 152.371 161.203 152.883 161.704C153.395 162.195 153.651 162.845 153.651 163.656C153.651 164.189 153.544 164.675 153.331 165.112C153.118 165.539 152.808 165.907 152.403 166.216C151.998 166.525 151.512 166.765 150.947 166.936C150.382 167.096 149.747 167.176 149.043 167.176ZM157.056 170.024C156.779 170.024 156.55 169.949 156.368 169.8C156.187 169.651 156.08 169.453 156.048 169.208C156.016 168.973 156.059 168.723 156.176 168.456L157.248 166.088V167.08L154.416 160.584C154.31 160.307 154.272 160.051 154.304 159.816C154.347 159.571 154.464 159.379 154.656 159.24C154.859 159.091 155.136 159.016 155.488 159.016C155.776 159.016 156.006 159.085 156.176 159.224C156.358 159.352 156.523 159.603 156.672 159.976L158.56 164.776H158.048L160 159.96C160.15 159.597 160.315 159.352 160.496 159.224C160.688 159.085 160.944 159.016 161.264 159.016C161.542 159.016 161.76 159.091 161.92 159.24C162.091 159.379 162.192 159.565 162.224 159.8C162.267 160.035 162.224 160.291 162.096 160.568L158.336 169.096C158.176 169.459 157.995 169.704 157.792 169.832C157.6 169.96 157.355 170.024 157.056 170.024ZM166.295 167.176C165.826 167.176 165.341 167.133 164.839 167.048C164.349 166.963 163.901 166.819 163.495 166.616C163.282 166.509 163.127 166.376 163.031 166.216C162.946 166.045 162.909 165.875 162.919 165.704C162.93 165.533 162.983 165.379 163.079 165.24C163.186 165.101 163.319 165.011 163.479 164.968C163.65 164.915 163.837 164.931 164.039 165.016C164.477 165.197 164.877 165.325 165.239 165.4C165.602 165.475 165.959 165.512 166.311 165.512C166.77 165.512 167.101 165.443 167.303 165.304C167.517 165.155 167.623 164.963 167.623 164.728C167.623 164.515 167.554 164.355 167.415 164.248C167.277 164.141 167.074 164.067 166.807 164.024L165.127 163.72C164.466 163.603 163.954 163.363 163.591 163C163.239 162.627 163.063 162.152 163.063 161.576C163.063 161.043 163.213 160.584 163.511 160.2C163.81 159.805 164.221 159.507 164.743 159.304C165.277 159.091 165.879 158.984 166.551 158.984C167.031 158.984 167.474 159.027 167.879 159.112C168.285 159.197 168.674 159.336 169.047 159.528C169.239 159.624 169.373 159.752 169.447 159.912C169.533 160.072 169.559 160.237 169.527 160.408C169.506 160.579 169.442 160.733 169.335 160.872C169.229 161.011 169.09 161.101 168.919 161.144C168.759 161.187 168.573 161.165 168.359 161.08C168.018 160.92 167.703 160.808 167.415 160.744C167.127 160.669 166.85 160.632 166.583 160.632C166.103 160.632 165.757 160.712 165.543 160.872C165.33 161.021 165.223 161.213 165.223 161.448C165.223 161.629 165.282 161.784 165.399 161.912C165.527 162.029 165.719 162.109 165.975 162.152L167.655 162.456C168.349 162.573 168.877 162.808 169.239 163.16C169.602 163.501 169.783 163.971 169.783 164.568C169.783 165.379 169.463 166.019 168.823 166.488C168.194 166.947 167.351 167.176 166.295 167.176ZM174.94 167.176C174.204 167.176 173.586 167.053 173.084 166.808C172.594 166.563 172.226 166.205 171.98 165.736C171.746 165.267 171.628 164.675 171.628 163.96V160.952H170.956C170.658 160.952 170.423 160.872 170.252 160.712C170.092 160.552 170.012 160.333 170.012 160.056C170.012 159.757 170.092 159.533 170.252 159.384C170.423 159.224 170.658 159.144 170.956 159.144H171.628V157.928C171.628 157.523 171.735 157.219 171.948 157.016C172.162 156.803 172.46 156.696 172.844 156.696C173.239 156.696 173.538 156.803 173.74 157.016C173.943 157.219 174.044 157.523 174.044 157.928V159.144H175.564C175.863 159.144 176.092 159.224 176.252 159.384C176.412 159.533 176.492 159.757 176.492 160.056C176.492 160.333 176.412 160.552 176.252 160.712C176.092 160.872 175.863 160.952 175.564 160.952H174.044V163.864C174.044 164.312 174.146 164.648 174.348 164.872C174.562 165.096 174.898 165.208 175.356 165.208C175.516 165.208 175.666 165.192 175.804 165.16C175.943 165.128 176.071 165.107 176.188 165.096C176.338 165.085 176.46 165.133 176.556 165.24C176.652 165.336 176.7 165.555 176.7 165.896C176.7 166.152 176.658 166.376 176.572 166.568C176.487 166.76 176.338 166.899 176.124 166.984C175.986 167.037 175.794 167.08 175.548 167.112C175.314 167.155 175.111 167.176 174.94 167.176ZM181.555 167.176C180.627 167.176 179.827 167.011 179.155 166.68C178.494 166.339 177.982 165.864 177.619 165.256C177.267 164.637 177.091 163.912 177.091 163.08C177.091 162.269 177.262 161.56 177.603 160.952C177.944 160.333 178.419 159.853 179.027 159.512C179.646 159.16 180.344 158.984 181.123 158.984C181.688 158.984 182.2 159.08 182.659 159.272C183.118 159.453 183.512 159.72 183.843 160.072C184.174 160.413 184.424 160.835 184.595 161.336C184.766 161.827 184.851 162.376 184.851 162.984C184.851 163.187 184.787 163.341 184.659 163.448C184.531 163.544 184.344 163.592 184.099 163.592H179.075V162.344H183.107L182.851 162.568C182.851 162.131 182.787 161.768 182.659 161.48C182.531 161.181 182.344 160.957 182.099 160.808C181.864 160.659 181.571 160.584 181.219 160.584C180.824 160.584 180.488 160.675 180.211 160.856C179.934 161.037 179.72 161.299 179.571 161.64C179.422 161.981 179.347 162.392 179.347 162.872V163C179.347 163.811 179.534 164.408 179.907 164.792C180.291 165.176 180.856 165.368 181.603 165.368C181.859 165.368 182.152 165.336 182.483 165.272C182.814 165.208 183.123 165.107 183.411 164.968C183.656 164.851 183.875 164.813 184.067 164.856C184.259 164.888 184.408 164.973 184.515 165.112C184.622 165.251 184.68 165.411 184.691 165.592C184.712 165.773 184.675 165.955 184.579 166.136C184.483 166.307 184.323 166.451 184.099 166.568C183.736 166.771 183.326 166.92 182.867 167.016C182.419 167.123 181.982 167.176 181.555 167.176ZM187.504 167.144C187.109 167.144 186.805 167.037 186.592 166.824C186.389 166.611 186.288 166.307 186.288 165.912V160.232C186.288 159.837 186.389 159.539 186.592 159.336C186.805 159.123 187.099 159.016 187.472 159.016C187.856 159.016 188.149 159.123 188.352 159.336C188.555 159.539 188.656 159.837 188.656 160.232V161.256L188.48 160.616C188.693 160.125 189.024 159.731 189.472 159.432C189.92 159.133 190.448 158.984 191.056 158.984C191.664 158.984 192.171 159.128 192.576 159.416C192.981 159.704 193.269 160.147 193.44 160.744H193.216C193.451 160.2 193.808 159.773 194.288 159.464C194.779 159.144 195.339 158.984 195.968 158.984C196.576 158.984 197.072 159.107 197.456 159.352C197.851 159.587 198.144 159.949 198.336 160.44C198.528 160.92 198.624 161.533 198.624 162.28V165.912C198.624 166.307 198.517 166.611 198.304 166.824C198.101 167.037 197.808 167.144 197.424 167.144C197.029 167.144 196.725 167.037 196.512 166.824C196.309 166.611 196.208 166.307 196.208 165.912V162.36C196.208 161.837 196.123 161.459 195.952 161.224C195.792 160.979 195.515 160.856 195.12 160.856C194.661 160.856 194.304 161.016 194.048 161.336C193.792 161.656 193.664 162.109 193.664 162.696V165.912C193.664 166.307 193.557 166.611 193.344 166.824C193.141 167.037 192.848 167.144 192.464 167.144C192.08 167.144 191.781 167.037 191.568 166.824C191.355 166.611 191.248 166.307 191.248 165.912V162.36C191.248 161.837 191.163 161.459 190.992 161.224C190.832 160.979 190.555 160.856 190.16 160.856C189.701 160.856 189.344 161.016 189.088 161.336C188.832 161.656 188.704 162.109 188.704 162.696V165.912C188.704 166.733 188.304 167.144 187.504 167.144Z" fill="#560BAC"/>
<path d="M42.5058 0.369263C34.8921 1.33893 27.2244 4.40954 21.5006 8.82691C7.62314 19.4394 3.5193 39.4792 9.99905 65.2292C16.9108 92.5954 35.918 125.78 51.4694 137.523C68.2087 150.129 85.2181 143.988 93.9117 122.116C94.8297 119.908 97.5296 112.851 99.9595 106.494C108.707 83.599 119.021 60.9196 122.693 56.7177L124.528 54.6167L126.31 56.7177C133.276 65.0676 140.836 91.895 140.944 108.703C140.998 118.292 148.882 123.679 157.359 119.8C169.023 114.467 186.734 83.0603 191.756 58.8186C192.674 54.4551 192.998 50.9536 192.998 45.6204C193.052 37.055 192.134 32.5299 188.948 25.85C183.17 13.783 169.131 5.2176 155.037 5.2176C128.74 5.2176 106.439 34.5231 80.8982 102.723C75.6604 116.675 73.9865 120.392 71.6106 122.924C69.5587 125.079 68.3167 125.241 65.4548 123.786C57.3552 119.692 45.1517 102.238 36.242 82.1984C27.9263 63.3976 24.5245 46.8055 26.6844 35.9237C28.0883 29.0283 30.1942 25.6883 34.5681 23.318C44.6657 17.8233 68.0467 20.1936 96.8816 29.567L105.413 32.3683L106.439 31.1831C106.979 30.4828 107.249 29.567 107.087 29.1361C106.655 27.9509 96.6116 20.1397 89.5919 15.453C71.0706 3.17052 56.7072 -1.40846 42.5058 0.369263ZM163.191 26.3348C167.403 28.2203 170.589 31.3986 172.425 35.2773C173.451 37.5398 173.613 38.725 173.559 45.6204C173.559 52.4081 173.343 54.1858 172.101 59.088C169.779 67.815 163.515 82.8448 161.193 85.1612C159.843 86.508 157.413 86.2387 156.117 84.6225C155.469 83.8145 154.983 82.9526 154.983 82.6832C154.983 81.3903 149.314 70.6701 146.128 65.9295C142.51 60.4886 136.246 52.8929 132.358 49.122C129.334 46.2668 129.388 44.5968 132.52 40.395C136.03 35.6544 141.106 30.3751 144.454 28.1125C150.933 23.6413 156.279 23.1564 163.191 26.3348Z" fill="#560BAC"/>
</svg>
